{"title":"A.Very.Murray.Christmas.2015.WEBRip.480p.x264.AAC-VYTO [P2PDL]","uid":12925741,"size":218438650,"categoryP":"video","categoryS":"movies","magnet":"?xt=urn:btih:7a666357c492c2a6a88ea7daf17d1af02780d4d6&amp;dn=A.Very.Murray.Christmas.2015.WEBRip.480p.x264.AAC-VYTO+%5BP2PDL%5D&amp;tr=udp%3A%2F%2Ftracker.leechers-paradise.org%3A6969&amp;tr=udp%3A%2F%2Fzer0day.ch%3A1337&amp;tr=udp%3A%2F%2Fopen.demonii.com%3A1337&amp;tr=udp%3A%2F%2Ftracker.coppersurfer.tk%3A6969&amp;tr=udp%3A%2F%2Fexodus.desync.com%3A6969","seeders":0,"leechers":1,"uploader":"VYTOP2PDL","files":7,"time":1449465618,"description":"____    ____ ____    ____ .___________.  ______   \r\n     /   /      /   / |           | /  __    \r\n    /   /      /   /  `---|  |----`|  |  |  | \r\n        /     _    _/       |  |     |  |  |  | \r\n       /        |  |         |  |     |  `--'  | \r\n    __/         |__|         |__|      ______/  \r\n                                                  \r\nPresenting Small Encodes with quality for years!\r\n                                                                                                   \r\n                                                                                                   \r\n\r\nA.Very.Murray.Christmas.2015.WEBRip.480p.x264.AAC-VYTO\r\n\r\n\r\nGenre: Action, Adventure, Sci-Fi    \nhttp://www.imdb.com/title/tt0478970/\r\n\r\n\r\nGeneral\r\nFormat                         : MPEG-4\r\nFile size                      : 201 MiB\r\nDuration                       : 56mn 31s\r\nOverall bit rate               : 497 Kbps\r\n\r\nVideo\r\nFormat                         : AVC\r\nBit rate                       : 462 Kbps\r\nWidth                          : 720 pixels\r\nHeight                         : 400 pixels\r\nDisplay aspect ratio           : 16:9\r\nFrame rate mode                : Constant\r\nFrame rate                     : 23.976 fps\r\nBit depth                      : 8 bits\r\nStream size                    : 187 MiB (93%)\r\nWriting library                : x264\r\n\r\nAudio\r\nFormat                         : AAC\r\nBit rate mode                  : Variable\r\nBit rate                       : 31.9 Kbps\r\nChannel(s)                     : 2 channels \r\nChannel positions              : Front: L R\r\nSampling rate                  : 48.0 KHz \r\nStream size                    : 12.9 MiB (6%)\r\n\r\nSubtitle                       : Yes (English)\r\n \nhttp://ititli.com/7y \nhttp://ititli.com/73 \nhttp://ititli.com/7E \nhttp://ititli.com/7Q \nhttp://ititli.com/7S \nhttp://ititli.com/7Z \nhttp://ititli.com/7c\r\n\r\n----------------------------------------------------------------------------------------------------\r\n\r\n\r\nEncoder Notes: Looking For Early Access To Anything You Can Provide WEBDL, DVDScr, DVDR, BluRay,\r\nDirect Audio, Music Releases and Seedboxes. If You Got anything to offer please contact us.\r\n\r\nSupport us by donating BC - 1FgwdzPsd1y25Gea8wP1qni35uGCtmkRCD\r\n\r\nSend some love!\r\nFind us! Join us!","torrent":{"xt":"urn:btih:7a666357c492c2a6a88ea7daf17d1af02780d4d6","amp;dn":"A.Very.Murray.Christmas.2015.WEBRip.480p.x264.AAC-VYTO+%5BP2PDL%5D","amp;tr":["udp%3A%2F%2Ftracker.leechers-paradise.org%3A6969","udp%3A%2F%2Fzer0day.ch%3A1337","udp%3A%2F%2Fopen.demonii.com%3A1337","udp%3A%2F%2Ftracker.coppersurfer.tk%3A6969","udp%3A%2F%2Fexodus.desync.com%3A6969"],"infoHash":"7a666357c492c2a6a88ea7daf17d1af02780d4d6","infoHashBuffer":{"type":"Buffer","data":[122,102,99,87,196,146,194,166,168,142,167,218,241,125,26,240,39,128,212,214]},"announce":[],"urlList":[]}}